solid OpenSCAD_Model
  facet normal -1 0 0
    outer loop
      vertex -4 15 -2
      vertex -4 15 2
      vertex -4 35 -2
    endloop
  endfacet
  facet normal -1 0 0
    outer loop
      vertex -4 35 -2
      vertex -4 15 2
      vertex -4 27 2
    endloop
  endfacet
  facet normal -1 0 0
    outer loop
      vertex -4 35 -2
      vertex -4 27 2
      vertex -4 27 50
    endloop
  endfacet
  facet normal -1 0 0
    outer loop
      vertex -4 27 50
      vertex -4 26.95 50
      vertex -4 26.95 54
    endloop
  endfacet
  facet normal -1 0 0
    outer loop
      vertex -4 27 50
      vertex -4 26.95 54
      vertex -4 35 -2
    endloop
  endfacet
  facet normal -1 0 0
    outer loop
      vertex -4 35 -2
      vertex -4 26.95 54
      vertex -4 35 54
    endloop
  endfacet
  facet normal 0 -1 0
    outer loop
      vertex 4 15 -2
      vertex 4 15 2
      vertex -4 15 2
    endloop
  endfacet
  facet normal 0 -1 0
    outer loop
      vertex -4 15 -2
      vertex 4 15 -2
      vertex -4 15 2
    endloop
  endfacet
  facet normal 0 0 -1
    outer loop
      vertex 0 16.825 -2
      vertex -4 15 -2
      vertex -2.82843 19.6534 -2
    endloop
  endfacet
  facet normal 0 0 -1
    outer loop
      vertex 2.82843 19.6534 -2
      vertex -4 35 -2
      vertex 4 35 -2
    endloop
  endfacet
  facet normal 0 0 -1
    outer loop
      vertex -2.82843 19.6534 -2
      vertex -4 35 -2
      vertex -4.44089e-16 22.4819 -2
    endloop
  endfacet
  facet normal 0 0 -1
    outer loop
      vertex -4 15 -2
      vertex -4 35 -2
      vertex -2.82843 19.6534 -2
    endloop
  endfacet
  facet normal 0 0 -1
    outer loop
      vertex 2.82843 19.6534 -2
      vertex 4 15 -2
      vertex 0 16.825 -2
    endloop
  endfacet
  facet normal 0 0 -1
    outer loop
      vertex -4 15 -2
      vertex 0 16.825 -2
      vertex 4 15 -2
    endloop
  endfacet
  facet normal 0 0 -1
    outer loop
      vertex 4 15 -2
      vertex 2.82843 19.6534 -2
      vertex 4 35 -2
    endloop
  endfacet
  facet normal 0 0 -1
    outer loop
      vertex -4.44089e-16 22.4819 -2
      vertex -4 35 -2
      vertex 2.82843 19.6534 -2
    endloop
  endfacet
  facet normal 0 1 0
    outer loop
      vertex -4 35 -2
      vertex -4 35 54
      vertex 4 35 -2
    endloop
  endfacet
  facet normal 0 1 0
    outer loop
      vertex 4 35 -2
      vertex -4 35 54
      vertex 4 35 54
    endloop
  endfacet
  facet normal 0 0 1
    outer loop
      vertex -4 35 54
      vertex -4 26.95 54
      vertex 26.55 26.95 54
    endloop
  endfacet
  facet normal 0 0 1
    outer loop
      vertex 22.55 28.15 54
      vertex -4 35 54
      vertex 26.55 26.95 54
    endloop
  endfacet
  facet normal 0 0 1
    outer loop
      vertex 22.55 28.15 54
      vertex 19.7216 30.9784 54
      vertex 4 34.95 54
    endloop
  endfacet
  facet normal 0 0 1
    outer loop
      vertex 22.55 33.8069 54
      vertex 4 34.95 54
      vertex 19.7216 30.9784 54
    endloop
  endfacet
  facet normal 0 0 1
    outer loop
      vertex 25.3784 30.9784 54
      vertex 22.55 28.15 54
      vertex 26.55 26.95 54
    endloop
  endfacet
  facet normal 0 0 1
    outer loop
      vertex 26.55 34.95 54
      vertex 4 34.95 54
      vertex 22.55 33.8069 54
    endloop
  endfacet
  facet normal 0 0 1
    outer loop
      vertex 26.55 34.95 54
      vertex 25.3784 30.9784 54
      vertex 26.55 26.95 54
    endloop
  endfacet
  facet normal 0 0 1
    outer loop
      vertex 22.55 33.8069 54
      vertex 25.3784 30.9784 54
      vertex 26.55 34.95 54
    endloop
  endfacet
  facet normal 0 0 1
    outer loop
      vertex 4 34.95 54
      vertex -4 35 54
      vertex 22.55 28.15 54
    endloop
  endfacet
  facet normal 0 0 1
    outer loop
      vertex 4 34.95 54
      vertex 4 35 54
      vertex -4 35 54
    endloop
  endfacet
  facet normal 0 -1 0
    outer loop
      vertex -4 26.95 54
      vertex -4 26.95 50
      vertex 26.55 26.95 50
    endloop
  endfacet
  facet normal 0 -1 0
    outer loop
      vertex 26.55 26.95 54
      vertex -4 26.95 54
      vertex 26.55 26.95 50
    endloop
  endfacet
  facet normal 0 0 -1
    outer loop
      vertex -4 26.95 50
      vertex -4 27 50
      vertex 26.55 26.95 50
    endloop
  endfacet
  facet normal 0 0 -1
    outer loop
      vertex 26.55 26.95 50
      vertex -4 27 50
      vertex 4 27 50
    endloop
  endfacet
  facet normal 0 0 -1
    outer loop
      vertex 22.55 28.15 50
      vertex 4 27 50
      vertex 4 34.95 50
    endloop
  endfacet
  facet normal 0 0 -1
    outer loop
      vertex 22.55 33.8069 50
      vertex 4 34.95 50
      vertex 26.55 34.95 50
    endloop
  endfacet
  facet normal 0 0 -1
    outer loop
      vertex 19.7216 30.9784 50
      vertex 4 34.95 50
      vertex 22.55 33.8069 50
    endloop
  endfacet
  facet normal 0 0 -1
    outer loop
      vertex 25.3784 30.9784 50
      vertex 22.55 33.8069 50
      vertex 26.55 34.95 50
    endloop
  endfacet
  facet normal 0 0 -1
    outer loop
      vertex 26.55 26.95 50
      vertex 4 27 50
      vertex 22.55 28.15 50
    endloop
  endfacet
  facet normal 0 0 -1
    outer loop
      vertex 25.3784 30.9784 50
      vertex 26.55 26.95 50
      vertex 22.55 28.15 50
    endloop
  endfacet
  facet normal 0 0 -1
    outer loop
      vertex 26.55 26.95 50
      vertex 25.3784 30.9784 50
      vertex 26.55 34.95 50
    endloop
  endfacet
  facet normal 0 0 -1
    outer loop
      vertex 22.55 28.15 50
      vertex 4 34.95 50
      vertex 19.7216 30.9784 50
    endloop
  endfacet
  facet normal 0 -1 0
    outer loop
      vertex -4 27 50
      vertex -4 27 2
      vertex 4 27 2
    endloop
  endfacet
  facet normal 0 -1 0
    outer loop
      vertex 4 27 50
      vertex -4 27 50
      vertex 4 27 2
    endloop
  endfacet
  facet normal 0 0 1
    outer loop
      vertex 0 16.825 2
      vertex -4 15 2
      vertex 4 15 2
    endloop
  endfacet
  facet normal 0 0 1
    outer loop
      vertex -4 27 2
      vertex -4 15 2
      vertex -2.82843 19.6534 2
    endloop
  endfacet
  facet normal 0 0 1
    outer loop
      vertex 4 27 2
      vertex -4 27 2
      vertex -4.44089e-16 22.4819 2
    endloop
  endfacet
  facet normal 0 0 1
    outer loop
      vertex 4 27 2
      vertex 2.82843 19.6534 2
      vertex 4 15 2
    endloop
  endfacet
  facet normal 0 0 1
    outer loop
      vertex 4 27 2
      vertex -4.44089e-16 22.4819 2
      vertex 2.82843 19.6534 2
    endloop
  endfacet
  facet normal 0 0 1
    outer loop
      vertex -2.82843 19.6534 2
      vertex -4 15 2
      vertex 0 16.825 2
    endloop
  endfacet
  facet normal 0 0 1
    outer loop
      vertex -2.82843 19.6534 2
      vertex -4.44089e-16 22.4819 2
      vertex -4 27 2
    endloop
  endfacet
  facet normal 0 0 1
    outer loop
      vertex 2.82843 19.6534 2
      vertex 0 16.825 2
      vertex 4 15 2
    endloop
  endfacet
  facet normal 1 0 0
    outer loop
      vertex 4 15 2
      vertex 4 15 -2
      vertex 4 35 -2
    endloop
  endfacet
  facet normal 1 0 0
    outer loop
      vertex 4 27 2
      vertex 4 15 2
      vertex 4 35 -2
    endloop
  endfacet
  facet normal 1 0 0
    outer loop
      vertex 4 35 54
      vertex 4 34.95 50
      vertex 4 35 -2
    endloop
  endfacet
  facet normal 1 0 0
    outer loop
      vertex 4 34.95 50
      vertex 4 27 2
      vertex 4 35 -2
    endloop
  endfacet
  facet normal 1 0 0
    outer loop
      vertex 4 27 50
      vertex 4 27 2
      vertex 4 34.95 50
    endloop
  endfacet
  facet normal 1 0 0
    outer loop
      vertex 4 34.95 54
      vertex 4 34.95 50
      vertex 4 35 54
    endloop
  endfacet
  facet normal 0.707107 -0.707107 0
    outer loop
      vertex -4.44089e-16 22.4819 -2
      vertex -4.44089e-16 22.4819 2
      vertex -2.82843 19.6534 2
    endloop
  endfacet
  facet normal 0.707107 -0.707107 0
    outer loop
      vertex -2.82843 19.6534 -2
      vertex -4.44089e-16 22.4819 -2
      vertex -2.82843 19.6534 2
    endloop
  endfacet
  facet normal -0.707107 -0.707107 0
    outer loop
      vertex 2.82843 19.6534 -2
      vertex 2.82843 19.6534 2
      vertex -4.44089e-16 22.4819 2
    endloop
  endfacet
  facet normal -0.707107 -0.707107 0
    outer loop
      vertex -4.44089e-16 22.4819 -2
      vertex 2.82843 19.6534 -2
      vertex -4.44089e-16 22.4819 2
    endloop
  endfacet
  facet normal -0.707107 0.707107 0
    outer loop
      vertex 2.82843 19.6534 2
      vertex 2.82843 19.6534 -2
      vertex 0 16.825 2
    endloop
  endfacet
  facet normal -0.707107 0.707107 0
    outer loop
      vertex 0 16.825 2
      vertex 2.82843 19.6534 -2
      vertex 0 16.825 -2
    endloop
  endfacet
  facet normal 0.707107 0.707107 0
    outer loop
      vertex 0 16.825 2
      vertex 0 16.825 -2
      vertex -2.82843 19.6534 2
    endloop
  endfacet
  facet normal 0.707107 0.707107 0
    outer loop
      vertex -2.82843 19.6534 2
      vertex 0 16.825 -2
      vertex -2.82843 19.6534 -2
    endloop
  endfacet
  facet normal 0 1 0
    outer loop
      vertex 4 34.95 50
      vertex 4 34.95 54
      vertex 26.55 34.95 50
    endloop
  endfacet
  facet normal 0 1 0
    outer loop
      vertex 26.55 34.95 50
      vertex 4 34.95 54
      vertex 26.55 34.95 54
    endloop
  endfacet
  facet normal 1 0 0
    outer loop
      vertex 26.55 26.95 54
      vertex 26.55 26.95 50
      vertex 26.55 34.95 50
    endloop
  endfacet
  facet normal 1 0 0
    outer loop
      vertex 26.55 34.95 54
      vertex 26.55 26.95 54
      vertex 26.55 34.95 50
    endloop
  endfacet
  facet normal 0.707107 0.707107 0
    outer loop
      vertex 22.55 28.15 54
      vertex 22.55 28.15 50
      vertex 19.7216 30.9784 54
    endloop
  endfacet
  facet normal 0.707107 0.707107 0
    outer loop
      vertex 19.7216 30.9784 54
      vertex 22.55 28.15 50
      vertex 19.7216 30.9784 50
    endloop
  endfacet
  facet normal 0.707107 -0.707107 0
    outer loop
      vertex 22.55 33.8069 50
      vertex 22.55 33.8069 54
      vertex 19.7216 30.9784 54
    endloop
  endfacet
  facet normal 0.707107 -0.707107 0
    outer loop
      vertex 19.7216 30.9784 50
      vertex 22.55 33.8069 50
      vertex 19.7216 30.9784 54
    endloop
  endfacet
  facet normal -0.707107 0.707107 0
    outer loop
      vertex 25.3784 30.9784 54
      vertex 25.3784 30.9784 50
      vertex 22.55 28.15 54
    endloop
  endfacet
  facet normal -0.707107 0.707107 0
    outer loop
      vertex 22.55 28.15 54
      vertex 25.3784 30.9784 50
      vertex 22.55 28.15 50
    endloop
  endfacet
  facet normal -0.707107 -0.707107 0
    outer loop
      vertex 25.3784 30.9784 50
      vertex 25.3784 30.9784 54
      vertex 22.55 33.8069 54
    endloop
  endfacet
  facet normal -0.707107 -0.707107 0
    outer loop
      vertex 22.55 33.8069 50
      vertex 25.3784 30.9784 50
      vertex 22.55 33.8069 54
    endloop
  endfacet
  facet normal -1 0 0
    outer loop
      vertex -4 -15 2
      vertex -4 -15 -2
      vertex -4 -27 2
    endloop
  endfacet
  facet normal -1 0 0
    outer loop
      vertex -4 -26.95 50
      vertex -4 -35 54
      vertex -4 -26.95 54
    endloop
  endfacet
  facet normal -1 0 0
    outer loop
      vertex -4 -27 50
      vertex -4 -35 54
      vertex -4 -26.95 50
    endloop
  endfacet
  facet normal -1 0 0
    outer loop
      vertex -4 -35 -2
      vertex -4 -35 54
      vertex -4 -27 2
    endloop
  endfacet
  facet normal -1 0 0
    outer loop
      vertex -4 -35 -2
      vertex -4 -27 2
      vertex -4 -15 -2
    endloop
  endfacet
  facet normal -1 0 0
    outer loop
      vertex -4 -27 2
      vertex -4 -35 54
      vertex -4 -27 50
    endloop
  endfacet
  facet normal 0 -1 0
    outer loop
      vertex -4 -35 54
      vertex -4 -35 -2
      vertex 4 -35 -2
    endloop
  endfacet
  facet normal 0 -1 0
    outer loop
      vertex 4 -35 54
      vertex -4 -35 54
      vertex 4 -35 -2
    endloop
  endfacet
  facet normal 0 0 -1
    outer loop
      vertex 2.82843 -19.5966 -2
      vertex 4 -35 -2
      vertex 0 -22.425 -2
    endloop
  endfacet
  facet normal 0 0 -1
    outer loop
      vertex -4.44089e-16 -16.7681 -2
      vertex -4 -15 -2
      vertex 4 -15 -2
    endloop
  endfacet
  facet normal 0 0 -1
    outer loop
      vertex 2.82843 -19.5966 -2
      vertex -4.44089e-16 -16.7681 -2
      vertex 4 -15 -2
    endloop
  endfacet
  facet normal 0 0 -1
    outer loop
      vertex -4 -35 -2
      vertex -4 -15 -2
      vertex -2.82843 -19.5966 -2
    endloop
  endfacet
  facet normal 0 0 -1
    outer loop
      vertex -4 -35 -2
      vertex -2.82843 -19.5966 -2
      vertex 4 -35 -2
    endloop
  endfacet
  facet normal 0 0 -1
    outer loop
      vertex 4 -35 -2
      vertex 2.82843 -19.5966 -2
      vertex 4 -15 -2
    endloop
  endfacet
  facet normal 0 0 -1
    outer loop
      vertex -2.82843 -19.5966 -2
      vertex -4 -15 -2
      vertex -4.44089e-16 -16.7681 -2
    endloop
  endfacet
  facet normal 0 0 -1
    outer loop
      vertex 0 -22.425 -2
      vertex 4 -35 -2
      vertex -2.82843 -19.5966 -2
    endloop
  endfacet
  facet normal 0 1 0
    outer loop
      vertex 4 -15 2
      vertex 4 -15 -2
      vertex -4 -15 2
    endloop
  endfacet
  facet normal 0 1 0
    outer loop
      vertex -4 -15 2
      vertex 4 -15 -2
      vertex -4 -15 -2
    endloop
  endfacet
  facet normal 0 0 1
    outer loop
      vertex -2.82843 -19.5966 2
      vertex -4 -27 2
      vertex 4 -27 2
    endloop
  endfacet
  facet normal 0 0 1
    outer loop
      vertex 0 -22.425 2
      vertex -2.82843 -19.5966 2
      vertex 4 -27 2
    endloop
  endfacet
  facet normal 0 0 1
    outer loop
      vertex -4 -15 2
      vertex -4 -27 2
      vertex -2.82843 -19.5966 2
    endloop
  endfacet
  facet normal 0 0 1
    outer loop
      vertex 4 -15 2
      vertex -4 -15 2
      vertex -4.44089e-16 -16.7681 2
    endloop
  endfacet
  facet normal 0 0 1
    outer loop
      vertex 4 -15 2
      vertex 2.82843 -19.5966 2
      vertex 4 -27 2
    endloop
  endfacet
  facet normal 0 0 1
    outer loop
      vertex 4 -15 2
      vertex -4.44089e-16 -16.7681 2
      vertex 2.82843 -19.5966 2
    endloop
  endfacet
  facet normal 0 0 1
    outer loop
      vertex 2.82843 -19.5966 2
      vertex 0 -22.425 2
      vertex 4 -27 2
    endloop
  endfacet
  facet normal 0 0 1
    outer loop
      vertex -2.82843 -19.5966 2
      vertex -4.44089e-16 -16.7681 2
      vertex -4 -15 2
    endloop
  endfacet
  facet normal 0 1 0
    outer loop
      vertex -4 -27 2
      vertex -4 -27 50
      vertex 4 -27 2
    endloop
  endfacet
  facet normal 0 1 0
    outer loop
      vertex 4 -27 2
      vertex -4 -27 50
      vertex 4 -27 50
    endloop
  endfacet
  facet normal 0 0 -1
    outer loop
      vertex -4 -27 50
      vertex -4 -26.95 50
      vertex 4 -27 50
    endloop
  endfacet
  facet normal 0 0 -1
    outer loop
      vertex 4 -27 50
      vertex -4 -26.95 50
      vertex 26.55 -26.95 50
    endloop
  endfacet
  facet normal 0 0 -1
    outer loop
      vertex 25.3784 -30.9216 50
      vertex 26.55 -26.95 50
      vertex 26.55 -34.95 50
    endloop
  endfacet
  facet normal 0 0 -1
    outer loop
      vertex 4 -27 50
      vertex 26.55 -26.95 50
      vertex 22.55 -28.0931 50
    endloop
  endfacet
  facet normal 0 0 -1
    outer loop
      vertex 4 -27 50
      vertex 22.55 -28.0931 50
      vertex 19.7216 -30.9216 50
    endloop
  endfacet
  facet normal 0 0 -1
    outer loop
      vertex 25.3784 -30.9216 50
      vertex 26.55 -34.95 50
      vertex 22.55 -33.75 50
    endloop
  endfacet
  facet normal 0 0 -1
    outer loop
      vertex 22.55 -33.75 50
      vertex 4 -27 50
      vertex 19.7216 -30.9216 50
    endloop
  endfacet
  facet normal 0 0 -1
    outer loop
      vertex 22.55 -28.0931 50
      vertex 26.55 -26.95 50
      vertex 25.3784 -30.9216 50
    endloop
  endfacet
  facet normal 0 0 -1
    outer loop
      vertex 22.55 -33.75 50
      vertex 26.55 -34.95 50
      vertex 4 -34.95 50
    endloop
  endfacet
  facet normal 0 0 -1
    outer loop
      vertex 4 -27 50
      vertex 22.55 -33.75 50
      vertex 4 -34.95 50
    endloop
  endfacet
  facet normal 0 1 0
    outer loop
      vertex -4 -26.95 50
      vertex -4 -26.95 54
      vertex 26.55 -26.95 50
    endloop
  endfacet
  facet normal 0 1 0
    outer loop
      vertex 26.55 -26.95 50
      vertex -4 -26.95 54
      vertex 26.55 -26.95 54
    endloop
  endfacet
  facet normal 0 0 1
    outer loop
      vertex -4 -26.95 54
      vertex -4 -35 54
      vertex 4 -35 54
    endloop
  endfacet
  facet normal 0 0 1
    outer loop
      vertex 26.55 -34.95 54
      vertex -4 -26.95 54
      vertex 4 -34.95 54
    endloop
  endfacet
  facet normal 0 0 1
    outer loop
      vertex 4 -34.95 54
      vertex -4 -26.95 54
      vertex 4 -35 54
    endloop
  endfacet
  facet normal 0 0 1
    outer loop
      vertex 22.55 -33.75 54
      vertex -4 -26.95 54
      vertex 26.55 -34.95 54
    endloop
  endfacet
  facet normal 0 0 1
    outer loop
      vertex 22.55 -28.0931 54
      vertex -4 -26.95 54
      vertex 19.7216 -30.9216 54
    endloop
  endfacet
  facet normal 0 0 1
    outer loop
      vertex 25.3784 -30.9216 54
      vertex 22.55 -33.75 54
      vertex 26.55 -34.95 54
    endloop
  endfacet
  facet normal 0 0 1
    outer loop
      vertex 26.55 -26.95 54
      vertex -4 -26.95 54
      vertex 22.55 -28.0931 54
    endloop
  endfacet
  facet normal 0 0 1
    outer loop
      vertex 26.55 -26.95 54
      vertex 25.3784 -30.9216 54
      vertex 26.55 -34.95 54
    endloop
  endfacet
  facet normal 0 0 1
    outer loop
      vertex 19.7216 -30.9216 54
      vertex -4 -26.95 54
      vertex 22.55 -33.75 54
    endloop
  endfacet
  facet normal 0 0 1
    outer loop
      vertex 22.55 -28.0931 54
      vertex 25.3784 -30.9216 54
      vertex 26.55 -26.95 54
    endloop
  endfacet
  facet normal 1 0 0
    outer loop
      vertex 4 -27 2
      vertex 4 -35 -2
      vertex 4 -15 -2
    endloop
  endfacet
  facet normal 1 0 0
    outer loop
      vertex 4 -34.95 50
      vertex 4 -34.95 54
      vertex 4 -35 54
    endloop
  endfacet
  facet normal 1 0 0
    outer loop
      vertex 4 -34.95 50
      vertex 4 -35 -2
      vertex 4 -27 2
    endloop
  endfacet
  facet normal 1 0 0
    outer loop
      vertex 4 -35 54
      vertex 4 -35 -2
      vertex 4 -34.95 50
    endloop
  endfacet
  facet normal 1 0 0
    outer loop
      vertex 4 -27 50
      vertex 4 -34.95 50
      vertex 4 -27 2
    endloop
  endfacet
  facet normal 1 0 0
    outer loop
      vertex 4 -15 2
      vertex 4 -27 2
      vertex 4 -15 -2
    endloop
  endfacet
  facet normal 0.707107 -0.707107 0
    outer loop
      vertex -4.44089e-16 -16.7681 -2
      vertex -4.44089e-16 -16.7681 2
      vertex -2.82843 -19.5966 2
    endloop
  endfacet
  facet normal 0.707107 -0.707107 0
    outer loop
      vertex -2.82843 -19.5966 -2
      vertex -4.44089e-16 -16.7681 -2
      vertex -2.82843 -19.5966 2
    endloop
  endfacet
  facet normal -0.707107 -0.707107 0
    outer loop
      vertex 2.82843 -19.5966 -2
      vertex 2.82843 -19.5966 2
      vertex -4.44089e-16 -16.7681 2
    endloop
  endfacet
  facet normal -0.707107 -0.707107 0
    outer loop
      vertex -4.44089e-16 -16.7681 -2
      vertex 2.82843 -19.5966 -2
      vertex -4.44089e-16 -16.7681 2
    endloop
  endfacet
  facet normal -0.707107 0.707107 0
    outer loop
      vertex 2.82843 -19.5966 2
      vertex 2.82843 -19.5966 -2
      vertex 0 -22.425 2
    endloop
  endfacet
  facet normal -0.707107 0.707107 0
    outer loop
      vertex 0 -22.425 2
      vertex 2.82843 -19.5966 -2
      vertex 0 -22.425 -2
    endloop
  endfacet
  facet normal 0.707107 0.707107 0
    outer loop
      vertex 0 -22.425 2
      vertex 0 -22.425 -2
      vertex -2.82843 -19.5966 2
    endloop
  endfacet
  facet normal 0.707107 0.707107 0
    outer loop
      vertex -2.82843 -19.5966 2
      vertex 0 -22.425 -2
      vertex -2.82843 -19.5966 -2
    endloop
  endfacet
  facet normal 0 -1 0
    outer loop
      vertex 4 -34.95 54
      vertex 4 -34.95 50
      vertex 26.55 -34.95 50
    endloop
  endfacet
  facet normal 0 -1 0
    outer loop
      vertex 26.55 -34.95 54
      vertex 4 -34.95 54
      vertex 26.55 -34.95 50
    endloop
  endfacet
  facet normal 1 0 0
    outer loop
      vertex 26.55 -34.95 54
      vertex 26.55 -34.95 50
      vertex 26.55 -26.95 50
    endloop
  endfacet
  facet normal 1 0 0
    outer loop
      vertex 26.55 -26.95 54
      vertex 26.55 -34.95 54
      vertex 26.55 -26.95 50
    endloop
  endfacet
  facet normal 0.707107 -0.707107 0
    outer loop
      vertex 22.55 -28.0931 50
      vertex 22.55 -28.0931 54
      vertex 19.7216 -30.9216 54
    endloop
  endfacet
  facet normal 0.707107 -0.707107 0
    outer loop
      vertex 19.7216 -30.9216 50
      vertex 22.55 -28.0931 50
      vertex 19.7216 -30.9216 54
    endloop
  endfacet
  facet normal -0.707107 -0.707107 0
    outer loop
      vertex 25.3784 -30.9216 50
      vertex 25.3784 -30.9216 54
      vertex 22.55 -28.0931 54
    endloop
  endfacet
  facet normal -0.707107 -0.707107 0
    outer loop
      vertex 22.55 -28.0931 50
      vertex 25.3784 -30.9216 50
      vertex 22.55 -28.0931 54
    endloop
  endfacet
  facet normal -0.707107 0.707107 0
    outer loop
      vertex 25.3784 -30.9216 54
      vertex 25.3784 -30.9216 50
      vertex 22.55 -33.75 54
    endloop
  endfacet
  facet normal -0.707107 0.707107 0
    outer loop
      vertex 22.55 -33.75 54
      vertex 25.3784 -30.9216 50
      vertex 22.55 -33.75 50
    endloop
  endfacet
  facet normal 0.707107 0.707107 0
    outer loop
      vertex 22.55 -33.75 54
      vertex 22.55 -33.75 50
      vertex 19.7216 -30.9216 54
    endloop
  endfacet
  facet normal 0.707107 0.707107 0
    outer loop
      vertex 19.7216 -30.9216 54
      vertex 22.55 -33.75 50
      vertex 19.7216 -30.9216 50
    endloop
  endfacet
endsolid OpenSCAD_Model
