solid OpenSCAD_Model
  facet normal -2.22045e-16 0 1
    outer loop
      vertex -6 -27 18
      vertex -6 -35 18
      vertex -1 -35 18
    endloop
  endfacet
  facet normal -2.22045e-16 0 1
    outer loop
      vertex -1 -27 18
      vertex -6 -27 18
      vertex -1 -35 18
    endloop
  endfacet
  facet normal 0 -1 0
    outer loop
      vertex -1 -35 18
      vertex -6 -35 18
      vertex -6 -35 10
    endloop
  endfacet
  facet normal 0 -1 0
    outer loop
      vertex -4 -35 10
      vertex -1 -35 18
      vertex -6 -35 10
    endloop
  endfacet
  facet normal 0 -1 0
    outer loop
      vertex -4 -35 10
      vertex -1 -35 10
      vertex -1 -35 18
    endloop
  endfacet
  facet normal 0 -1 0
    outer loop
      vertex -6 -35 -2
      vertex -4 -35 10
      vertex -6 -35 10
    endloop
  endfacet
  facet normal 0 -1 0
    outer loop
      vertex -4 -35 -2
      vertex -4 -35 10
      vertex -6 -35 -2
    endloop
  endfacet
  facet normal -1 0 -2.22045e-16
    outer loop
      vertex -6 -30.9716 11.1716
      vertex -6 -35 10
      vertex -6 -33.8 14
    endloop
  endfacet
  facet normal -1 0 -2.22045e-16
    outer loop
      vertex -6 -28.1431 14
      vertex -6 -27 18
      vertex -6 -27 10
    endloop
  endfacet
  facet normal -1 0 -2.22045e-16
    outer loop
      vertex -6 -30.9716 11.1716
      vertex -6 -28.1431 14
      vertex -6 -27 10
    endloop
  endfacet
  facet normal -1 0 -2.22045e-16
    outer loop
      vertex -6 -35 18
      vertex -6 -27 18
      vertex -6 -30.9716 16.8284
    endloop
  endfacet
  facet normal -1 0 -2.22045e-16
    outer loop
      vertex -6 -35 18
      vertex -6 -30.9716 16.8284
      vertex -6 -33.8 14
    endloop
  endfacet
  facet normal -1 0 -2.22045e-16
    outer loop
      vertex -6 -35 18
      vertex -6 -33.8 14
      vertex -6 -35 10
    endloop
  endfacet
  facet normal -1 0 -2.22045e-16
    outer loop
      vertex -6 -35 10
      vertex -6 -30.9716 11.1716
      vertex -6 -27 10
    endloop
  endfacet
  facet normal -1 0 -2.22045e-16
    outer loop
      vertex -6 -30.9716 16.8284
      vertex -6 -27 18
      vertex -6 -28.1431 14
    endloop
  endfacet
  facet normal 0 1 0
    outer loop
      vertex -6 -27 18
      vertex -1 -27 18
      vertex -6 -27 10
    endloop
  endfacet
  facet normal 0 1 0
    outer loop
      vertex -6 -27 10
      vertex -1 -27 18
      vertex -1 -27 10
    endloop
  endfacet
  facet normal 0 1 0
    outer loop
      vertex -6 -27 10
      vertex -1 -27 10
      vertex -4 -27 10
    endloop
  endfacet
  facet normal 0 1 0
    outer loop
      vertex -6 -27 10
      vertex -4 -27 10
      vertex -4 -27 2
    endloop
  endfacet
  facet normal 0 1 0
    outer loop
      vertex -6 -27 10
      vertex -4 -27 2
      vertex -6 -27 2
    endloop
  endfacet
  facet normal 1 0 0
    outer loop
      vertex -1 -30.9716 16.8284
      vertex -1 -27 18
      vertex -1 -35 18
    endloop
  endfacet
  facet normal 1 0 0
    outer loop
      vertex -1 -28.1431 14
      vertex -1 -30.9716 11.1716
      vertex -1 -27 10
    endloop
  endfacet
  facet normal 1 0 0
    outer loop
      vertex -1 -28.1431 14
      vertex -1 -27 18
      vertex -1 -30.9716 16.8284
    endloop
  endfacet
  facet normal 1 0 0
    outer loop
      vertex -1 -27 10
      vertex -1 -27 18
      vertex -1 -28.1431 14
    endloop
  endfacet
  facet normal 1 0 0
    outer loop
      vertex -1 -35 10
      vertex -1 -27 10
      vertex -1 -30.9716 11.1716
    endloop
  endfacet
  facet normal 1 0 0
    outer loop
      vertex -1 -35 10
      vertex -1 -33.8 14
      vertex -1 -35 18
    endloop
  endfacet
  facet normal 1 0 0
    outer loop
      vertex -1 -35 10
      vertex -1 -30.9716 11.1716
      vertex -1 -33.8 14
    endloop
  endfacet
  facet normal 1 0 0
    outer loop
      vertex -1 -33.8 14
      vertex -1 -30.9716 16.8284
      vertex -1 -35 18
    endloop
  endfacet
  facet normal 2.22045e-16 0 -1
    outer loop
      vertex -4 -35 10
      vertex -4 -27 10
      vertex -1 -35 10
    endloop
  endfacet
  facet normal 2.22045e-16 0 -1
    outer loop
      vertex -1 -35 10
      vertex -4 -27 10
      vertex -1 -27 10
    endloop
  endfacet
  facet normal 1 0 0
    outer loop
      vertex -4 -23.625 -2
      vertex -4 -23.625 2
      vertex -4 -27 2
    endloop
  endfacet
  facet normal 1 0 0
    outer loop
      vertex -4 -35 10
      vertex -4 -23.625 -2
      vertex -4 -27 2
    endloop
  endfacet
  facet normal 1 0 0
    outer loop
      vertex -4 -27 10
      vertex -4 -35 10
      vertex -4 -27 2
    endloop
  endfacet
  facet normal 1 0 0
    outer loop
      vertex -4 -35 10
      vertex -4 -35 -2
      vertex -4 -23.625 -2
    endloop
  endfacet
  facet normal 0 0 -1
    outer loop
      vertex -6 -35 -2
      vertex -6 35 -2
      vertex -4 -35 -2
    endloop
  endfacet
  facet normal 0 0 -1
    outer loop
      vertex -4 23.625 -2
      vertex -6 35 -2
      vertex -4 35 -2
    endloop
  endfacet
  facet normal 0 0 -1
    outer loop
      vertex -4 -35 -2
      vertex -6 35 -2
      vertex -4 -23.625 -2
    endloop
  endfacet
  facet normal 0 0 -1
    outer loop
      vertex 2.82843 19.6534 -2
      vertex 4 23.625 -2
      vertex 4 15.625 -2
    endloop
  endfacet
  facet normal 0 0 -1
    outer loop
      vertex 4 23.625 -2
      vertex 4 35 -2
      vertex 6 35 -2
    endloop
  endfacet
  facet normal 0 0 -1
    outer loop
      vertex 0 16.825 -2
      vertex 2.82843 19.6534 -2
      vertex 4 15.625 -2
    endloop
  endfacet
  facet normal 0 0 -1
    outer loop
      vertex 4 -35 -2
      vertex 6 35 -2
      vertex 6 -35 -2
    endloop
  endfacet
  facet normal 0 0 -1
    outer loop
      vertex 4 -23.625 -2
      vertex 6 35 -2
      vertex 4 -35 -2
    endloop
  endfacet
  facet normal 0 0 -1
    outer loop
      vertex 4 -15.625 -2
      vertex 6 35 -2
      vertex 4 -23.625 -2
    endloop
  endfacet
  facet normal 0 0 -1
    outer loop
      vertex -4 -15.625 -2
      vertex -4 -23.625 -2
      vertex -6 35 -2
    endloop
  endfacet
  facet normal 0 0 -1
    outer loop
      vertex 0 16.825 -2
      vertex -4 15.625 -2
      vertex -2.82843 19.6534 -2
    endloop
  endfacet
  facet normal 0 0 -1
    outer loop
      vertex -4 23.625 -2
      vertex -4 15.625 -2
      vertex -6 35 -2
    endloop
  endfacet
  facet normal 0 0 -1
    outer loop
      vertex 4 -15.625 -2
      vertex -4.44089e-16 -16.7681 -2
      vertex -4 -15.625 -2
    endloop
  endfacet
  facet normal 0 0 -1
    outer loop
      vertex -4 15.625 -2
      vertex -4 -15.625 -2
      vertex -6 35 -2
    endloop
  endfacet
  facet normal 0 0 -1
    outer loop
      vertex 4 15.625 -2
      vertex 6 35 -2
      vertex 4 -15.625 -2
    endloop
  endfacet
  facet normal 0 0 -1
    outer loop
      vertex 2.82843 -19.5966 -2
      vertex 4 -15.625 -2
      vertex 4 -23.625 -2
    endloop
  endfacet
  facet normal 0 0 -1
    outer loop
      vertex -4 15.625 -2
      vertex 0 16.825 -2
      vertex 4 15.625 -2
    endloop
  endfacet
  facet normal 0 0 -1
    outer loop
      vertex -4.44089e-16 -16.7681 -2
      vertex 4 -15.625 -2
      vertex 2.82843 -19.5966 -2
    endloop
  endfacet
  facet normal 0 0 -1
    outer loop
      vertex 0 -22.425 -2
      vertex -4 -23.625 -2
      vertex -2.82843 -19.5966 -2
    endloop
  endfacet
  facet normal 0 0 -1
    outer loop
      vertex 4 23.625 -2
      vertex 6 35 -2
      vertex 4 15.625 -2
    endloop
  endfacet
  facet normal 0 0 -1
    outer loop
      vertex -4 23.625 -2
      vertex 4 23.625 -2
      vertex -4.44089e-16 22.4819 -2
    endloop
  endfacet
  facet normal 0 0 -1
    outer loop
      vertex -4 23.625 -2
      vertex -4.44089e-16 22.4819 -2
      vertex -2.82843 19.6534 -2
    endloop
  endfacet
  facet normal 0 0 -1
    outer loop
      vertex -4 23.625 -2
      vertex -2.82843 19.6534 -2
      vertex -4 15.625 -2
    endloop
  endfacet
  facet normal 0 0 -1
    outer loop
      vertex -2.82843 -19.5966 -2
      vertex -4 -23.625 -2
      vertex -4 -15.625 -2
    endloop
  endfacet
  facet normal 0 0 -1
    outer loop
      vertex -4.44089e-16 -16.7681 -2
      vertex -2.82843 -19.5966 -2
      vertex -4 -15.625 -2
    endloop
  endfacet
  facet normal 0 0 -1
    outer loop
      vertex -4.44089e-16 22.4819 -2
      vertex 4 23.625 -2
      vertex 2.82843 19.6534 -2
    endloop
  endfacet
  facet normal 0 0 -1
    outer loop
      vertex 0 -22.425 -2
      vertex 2.82843 -19.5966 -2
      vertex 4 -23.625 -2
    endloop
  endfacet
  facet normal 0 0 -1
    outer loop
      vertex -4 -23.625 -2
      vertex 0 -22.425 -2
      vertex 4 -23.625 -2
    endloop
  endfacet
  facet normal -1 0 0
    outer loop
      vertex -6 27 2
      vertex -6 35 -2
      vertex -6 -27 2
    endloop
  endfacet
  facet normal -1 0 0
    outer loop
      vertex -6 -35 -2
      vertex -6 -35 10
      vertex -6 -27 2
    endloop
  endfacet
  facet normal -1 0 0
    outer loop
      vertex -6 -35 -2
      vertex -6 -27 2
      vertex -6 35 -2
    endloop
  endfacet
  facet normal -1 0 0
    outer loop
      vertex -6 35 -2
      vertex -6 27 2
      vertex -6 27 10
    endloop
  endfacet
  facet normal -1 0 0
    outer loop
      vertex -6 35 -2
      vertex -6 27 10
      vertex -6 35 10
    endloop
  endfacet
  facet normal -1 0 0
    outer loop
      vertex -6 -27 2
      vertex -6 -35 10
      vertex -6 -27 10
    endloop
  endfacet
  facet normal 1.57009e-16 -0.707107 -0.707107
    outer loop
      vertex -1 -28.1431 14
      vertex -1 -30.9716 16.8284
      vertex -6 -28.1431 14
    endloop
  endfacet
  facet normal 1.57009e-16 -0.707107 -0.707107
    outer loop
      vertex -6 -28.1431 14
      vertex -1 -30.9716 16.8284
      vertex -6 -30.9716 16.8284
    endloop
  endfacet
  facet normal -1.57009e-16 -0.707107 0.707107
    outer loop
      vertex -6 -30.9716 11.1716
      vertex -1 -30.9716 11.1716
      vertex -1 -28.1431 14
    endloop
  endfacet
  facet normal -1.57009e-16 -0.707107 0.707107
    outer loop
      vertex -6 -28.1431 14
      vertex -6 -30.9716 11.1716
      vertex -1 -28.1431 14
    endloop
  endfacet
  facet normal -1.57009e-16 0.707107 0.707107
    outer loop
      vertex -1 -33.8 14
      vertex -1 -30.9716 11.1716
      vertex -6 -30.9716 11.1716
    endloop
  endfacet
  facet normal -1.57009e-16 0.707107 0.707107
    outer loop
      vertex -6 -33.8 14
      vertex -1 -33.8 14
      vertex -6 -30.9716 11.1716
    endloop
  endfacet
  facet normal 1.57009e-16 0.707107 -0.707107
    outer loop
      vertex -1 -33.8 14
      vertex -6 -33.8 14
      vertex -1 -30.9716 16.8284
    endloop
  endfacet
  facet normal 1.57009e-16 0.707107 -0.707107
    outer loop
      vertex -1 -30.9716 16.8284
      vertex -6 -33.8 14
      vertex -6 -30.9716 16.8284
    endloop
  endfacet
  facet normal 0 0 1
    outer loop
      vertex -6 27 2
      vertex -6 -27 2
      vertex -4 -27 2
    endloop
  endfacet
  facet normal 0 0 1
    outer loop
      vertex -4 -15.625 2
      vertex -6 27 2
      vertex -4 -23.625 2
    endloop
  endfacet
  facet normal 0 0 1
    outer loop
      vertex -4 -23.625 2
      vertex -6 27 2
      vertex -4 -27 2
    endloop
  endfacet
  facet normal 0 0 1
    outer loop
      vertex 6 -27 2
      vertex 4 -23.625 2
      vertex 4 -27 2
    endloop
  endfacet
  facet normal 0 0 1
    outer loop
      vertex 6 27 2
      vertex 4 27 2
      vertex 6 -27 2
    endloop
  endfacet
  facet normal 0 0 1
    outer loop
      vertex 4 27 2
      vertex 4 23.625 2
      vertex 6 -27 2
    endloop
  endfacet
  facet normal 0 0 1
    outer loop
      vertex -4 15.625 2
      vertex -4 23.625 2
      vertex -6 27 2
    endloop
  endfacet
  facet normal 0 0 1
    outer loop
      vertex -2.82843 -19.5966 2
      vertex -4 -15.625 2
      vertex -4 -23.625 2
    endloop
  endfacet
  facet normal 0 0 1
    outer loop
      vertex -4 15.625 2
      vertex -6 27 2
      vertex -4 -15.625 2
    endloop
  endfacet
  facet normal 0 0 1
    outer loop
      vertex -4 15.625 2
      vertex 4 15.625 2
      vertex 0 16.825 2
    endloop
  endfacet
  facet normal 0 0 1
    outer loop
      vertex 4 23.625 2
      vertex 4 15.625 2
      vertex 6 -27 2
    endloop
  endfacet
  facet normal 0 0 1
    outer loop
      vertex 4 15.625 2
      vertex 4 -15.625 2
      vertex 6 -27 2
    endloop
  endfacet
  facet normal 0 0 1
    outer loop
      vertex 2.82843 -19.5966 2
      vertex 0 -22.425 2
      vertex 4 -23.625 2
    endloop
  endfacet
  facet normal 0 0 1
    outer loop
      vertex 0 -22.425 2
      vertex -2.82843 -19.5966 2
      vertex -4 -23.625 2
    endloop
  endfacet
  facet normal 0 0 1
    outer loop
      vertex -4 15.625 2
      vertex -2.82843 19.6534 2
      vertex -4 23.625 2
    endloop
  endfacet
  facet normal 0 0 1
    outer loop
      vertex 2.82843 19.6534 2
      vertex 0 16.825 2
      vertex 4 15.625 2
    endloop
  endfacet
  facet normal 0 0 1
    outer loop
      vertex -4 15.625 2
      vertex 0 16.825 2
      vertex -2.82843 19.6534 2
    endloop
  endfacet
  facet normal 0 0 1
    outer loop
      vertex 4 -23.625 2
      vertex 0 -22.425 2
      vertex -4 -23.625 2
    endloop
  endfacet
  facet normal 0 0 1
    outer loop
      vertex -2.82843 -19.5966 2
      vertex -4.44089e-16 -16.7681 2
      vertex -4 -15.625 2
    endloop
  endfacet
  facet normal 0 0 1
    outer loop
      vertex 4 23.625 2
      vertex -4 23.625 2
      vertex -4.44089e-16 22.4819 2
    endloop
  endfacet
  facet normal 0 0 1
    outer loop
      vertex 4 23.625 2
      vertex 2.82843 19.6534 2
      vertex 4 15.625 2
    endloop
  endfacet
  facet normal 0 0 1
    outer loop
      vertex 4 23.625 2
      vertex -4.44089e-16 22.4819 2
      vertex 2.82843 19.6534 2
    endloop
  endfacet
  facet normal 0 0 1
    outer loop
      vertex -2.82843 19.6534 2
      vertex -4.44089e-16 22.4819 2
      vertex -4 23.625 2
    endloop
  endfacet
  facet normal 0 0 1
    outer loop
      vertex -4 23.625 2
      vertex -4 27 2
      vertex -6 27 2
    endloop
  endfacet
  facet normal 0 0 1
    outer loop
      vertex 4 -15.625 2
      vertex 4 -23.625 2
      vertex 6 -27 2
    endloop
  endfacet
  facet normal 0 0 1
    outer loop
      vertex 4 -15.625 2
      vertex 2.82843 -19.5966 2
      vertex 4 -23.625 2
    endloop
  endfacet
  facet normal 0 0 1
    outer loop
      vertex 4 -15.625 2
      vertex -4.44089e-16 -16.7681 2
      vertex 2.82843 -19.5966 2
    endloop
  endfacet
  facet normal 0 0 1
    outer loop
      vertex 4 -15.625 2
      vertex -4 -15.625 2
      vertex -4.44089e-16 -16.7681 2
    endloop
  endfacet
  facet normal 0 -1 0
    outer loop
      vertex -4 -23.625 2
      vertex -4 -23.625 -2
      vertex 4 -23.625 -2
    endloop
  endfacet
  facet normal 0 -1 0
    outer loop
      vertex 4 -23.625 2
      vertex -4 -23.625 2
      vertex 4 -23.625 -2
    endloop
  endfacet
  facet normal -1 0 0
    outer loop
      vertex 4 -27 10
      vertex 4 -27 2
      vertex 4 -35 10
    endloop
  endfacet
  facet normal -1 0 0
    outer loop
      vertex 4 -23.625 -2
      vertex 4 -27 2
      vertex 4 -23.625 2
    endloop
  endfacet
  facet normal -1 0 0
    outer loop
      vertex 4 -35 10
      vertex 4 -27 2
      vertex 4 -23.625 -2
    endloop
  endfacet
  facet normal -1 0 0
    outer loop
      vertex 4 -35 10
      vertex 4 -23.625 -2
      vertex 4 -35 -2
    endloop
  endfacet
  facet normal 0 -1 0
    outer loop
      vertex 1 -35 18
      vertex 1 -35 10
      vertex 4 -35 10
    endloop
  endfacet
  facet normal 0 -1 0
    outer loop
      vertex 5 -35 10
      vertex 1 -35 18
      vertex 4 -35 10
    endloop
  endfacet
  facet normal 0 -1 0
    outer loop
      vertex 4 -35 -2
      vertex 6 -35 -2
      vertex 4 -35 10
    endloop
  endfacet
  facet normal 0 -1 0
    outer loop
      vertex 6 -35 -2
      vertex 6 -35 10
      vertex 4 -35 10
    endloop
  endfacet
  facet normal 0 -1 0
    outer loop
      vertex 6 -35 10
      vertex 5 -35 10
      vertex 4 -35 10
    endloop
  endfacet
  facet normal 0 -1 0
    outer loop
      vertex 6 -35 10
      vertex 6 -35 18
      vertex 1 -35 18
    endloop
  endfacet
  facet normal 0 -1 0
    outer loop
      vertex 5 -35 10
      vertex 6 -35 10
      vertex 1 -35 18
    endloop
  endfacet
  facet normal 1 0 0
    outer loop
      vertex 6 -27 2
      vertex 6 -35 -2
      vertex 6 35 -2
    endloop
  endfacet
  facet normal 1 0 0
    outer loop
      vertex 6 -27 2
      vertex 6 -27 10
      vertex 6 -35 10
    endloop
  endfacet
  facet normal 1 0 0
    outer loop
      vertex 6 35 10
      vertex 6 27 10
      vertex 6 35 -2
    endloop
  endfacet
  facet normal 1 0 0
    outer loop
      vertex 6 27 10
      vertex 6 27 2
      vertex 6 35 -2
    endloop
  endfacet
  facet normal 1 0 0
    outer loop
      vertex 6 -35 10
      vertex 6 -35 -2
      vertex 6 -27 2
    endloop
  endfacet
  facet normal 1 0 0
    outer loop
      vertex 6 27 2
      vertex 6 -27 2
      vertex 6 35 -2
    endloop
  endfacet
  facet normal 0 1 0
    outer loop
      vertex 1 35 10
      vertex 1 35 18
      vertex 4 35 10
    endloop
  endfacet
  facet normal 0 1 0
    outer loop
      vertex 4 35 10
      vertex 1 35 18
      vertex 6 35 18
    endloop
  endfacet
  facet normal 0 1 0
    outer loop
      vertex 5 35 10
      vertex 6 35 18
      vertex 6 35 10
    endloop
  endfacet
  facet normal 0 1 0
    outer loop
      vertex 4 35 10
      vertex 6 35 18
      vertex 5 35 10
    endloop
  endfacet
  facet normal 0 1 0
    outer loop
      vertex 5 35 10
      vertex 6 35 10
      vertex 4 35 10
    endloop
  endfacet
  facet normal 0 1 0
    outer loop
      vertex 4 35 10
      vertex 6 35 10
      vertex 6 35 -2
    endloop
  endfacet
  facet normal 0 1 0
    outer loop
      vertex 4 35 10
      vertex 6 35 -2
      vertex 4 35 -2
    endloop
  endfacet
  facet normal -1 0 0
    outer loop
      vertex 4 27 2
      vertex 4 27 10
      vertex 4 35 10
    endloop
  endfacet
  facet normal -1 0 0
    outer loop
      vertex 4 27 2
      vertex 4 35 10
      vertex 4 35 -2
    endloop
  endfacet
  facet normal -1 0 0
    outer loop
      vertex 4 27 2
      vertex 4 35 -2
      vertex 4 23.625 2
    endloop
  endfacet
  facet normal -1 0 0
    outer loop
      vertex 4 35 -2
      vertex 4 23.625 -2
      vertex 4 23.625 2
    endloop
  endfacet
  facet normal 0 1 0
    outer loop
      vertex -4 23.625 -2
      vertex -4 23.625 2
      vertex 4 23.625 -2
    endloop
  endfacet
  facet normal 0 1 0
    outer loop
      vertex 4 23.625 -2
      vertex -4 23.625 2
      vertex 4 23.625 2
    endloop
  endfacet
  facet normal 1 0 0
    outer loop
      vertex -4 35 -2
      vertex -4 35 10
      vertex -4 27 10
    endloop
  endfacet
  facet normal 1 0 0
    outer loop
      vertex -4 23.625 2
      vertex -4 35 -2
      vertex -4 27 2
    endloop
  endfacet
  facet normal 1 0 0
    outer loop
      vertex -4 27 2
      vertex -4 35 -2
      vertex -4 27 10
    endloop
  endfacet
  facet normal 1 0 0
    outer loop
      vertex -4 23.625 -2
      vertex -4 35 -2
      vertex -4 23.625 2
    endloop
  endfacet
  facet normal 0 1 0
    outer loop
      vertex -6 35 18
      vertex -1 35 18
      vertex -6 35 10
    endloop
  endfacet
  facet normal 0 1 0
    outer loop
      vertex -6 35 10
      vertex -1 35 18
      vertex -1 35 10
    endloop
  endfacet
  facet normal 0 1 0
    outer loop
      vertex -6 35 10
      vertex -1 35 10
      vertex -4 35 10
    endloop
  endfacet
  facet normal 0 1 0
    outer loop
      vertex -6 35 10
      vertex -4 35 10
      vertex -4 35 -2
    endloop
  endfacet
  facet normal 0 1 0
    outer loop
      vertex -6 35 10
      vertex -4 35 -2
      vertex -6 35 -2
    endloop
  endfacet
  facet normal 1 0 0
    outer loop
      vertex -4 15.625 -2
      vertex -4 15.625 2
      vertex -4 -15.625 2
    endloop
  endfacet
  facet normal 1 0 0
    outer loop
      vertex -4 -15.625 -2
      vertex -4 15.625 -2
      vertex -4 -15.625 2
    endloop
  endfacet
  facet normal 0 -1 0
    outer loop
      vertex -4 15.625 2
      vertex -4 15.625 -2
      vertex 4 15.625 -2
    endloop
  endfacet
  facet normal 0 -1 0
    outer loop
      vertex 4 15.625 2
      vertex -4 15.625 2
      vertex 4 15.625 -2
    endloop
  endfacet
  facet normal -1 0 0
    outer loop
      vertex 4 15.625 2
      vertex 4 15.625 -2
      vertex 4 -15.625 2
    endloop
  endfacet
  facet normal -1 0 0
    outer loop
      vertex 4 -15.625 2
      vertex 4 15.625 -2
      vertex 4 -15.625 -2
    endloop
  endfacet
  facet normal 0 1 0
    outer loop
      vertex -4 -15.625 -2
      vertex -4 -15.625 2
      vertex 4 -15.625 -2
    endloop
  endfacet
  facet normal 0 1 0
    outer loop
      vertex 4 -15.625 -2
      vertex -4 -15.625 2
      vertex 4 -15.625 2
    endloop
  endfacet
  facet normal 0.707107 -0.707107 0
    outer loop
      vertex -4.44089e-16 -16.7681 -2
      vertex -4.44089e-16 -16.7681 2
      vertex -2.82843 -19.5966 2
    endloop
  endfacet
  facet normal 0.707107 -0.707107 0
    outer loop
      vertex -2.82843 -19.5966 -2
      vertex -4.44089e-16 -16.7681 -2
      vertex -2.82843 -19.5966 2
    endloop
  endfacet
  facet normal -0.707107 -0.707107 0
    outer loop
      vertex 2.82843 -19.5966 -2
      vertex 2.82843 -19.5966 2
      vertex -4.44089e-16 -16.7681 2
    endloop
  endfacet
  facet normal -0.707107 -0.707107 0
    outer loop
      vertex -4.44089e-16 -16.7681 -2
      vertex 2.82843 -19.5966 -2
      vertex -4.44089e-16 -16.7681 2
    endloop
  endfacet
  facet normal -0.707107 0.707107 0
    outer loop
      vertex 2.82843 -19.5966 2
      vertex 2.82843 -19.5966 -2
      vertex 0 -22.425 2
    endloop
  endfacet
  facet normal -0.707107 0.707107 0
    outer loop
      vertex 0 -22.425 2
      vertex 2.82843 -19.5966 -2
      vertex 0 -22.425 -2
    endloop
  endfacet
  facet normal 0.707107 0.707107 0
    outer loop
      vertex 0 -22.425 2
      vertex 0 -22.425 -2
      vertex -2.82843 -19.5966 2
    endloop
  endfacet
  facet normal 0.707107 0.707107 0
    outer loop
      vertex -2.82843 -19.5966 2
      vertex 0 -22.425 -2
      vertex -2.82843 -19.5966 -2
    endloop
  endfacet
  facet normal 0.707107 -0.707107 0
    outer loop
      vertex -4.44089e-16 22.4819 -2
      vertex -4.44089e-16 22.4819 2
      vertex -2.82843 19.6534 2
    endloop
  endfacet
  facet normal 0.707107 -0.707107 0
    outer loop
      vertex -2.82843 19.6534 -2
      vertex -4.44089e-16 22.4819 -2
      vertex -2.82843 19.6534 2
    endloop
  endfacet
  facet normal -0.707107 -0.707107 0
    outer loop
      vertex 2.82843 19.6534 -2
      vertex 2.82843 19.6534 2
      vertex -4.44089e-16 22.4819 2
    endloop
  endfacet
  facet normal -0.707107 -0.707107 0
    outer loop
      vertex -4.44089e-16 22.4819 -2
      vertex 2.82843 19.6534 -2
      vertex -4.44089e-16 22.4819 2
    endloop
  endfacet
  facet normal -0.707107 0.707107 0
    outer loop
      vertex 2.82843 19.6534 2
      vertex 2.82843 19.6534 -2
      vertex 0 16.825 2
    endloop
  endfacet
  facet normal -0.707107 0.707107 0
    outer loop
      vertex 0 16.825 2
      vertex 2.82843 19.6534 -2
      vertex 0 16.825 -2
    endloop
  endfacet
  facet normal 0.707107 0.707107 0
    outer loop
      vertex 0 16.825 2
      vertex 0 16.825 -2
      vertex -2.82843 19.6534 2
    endloop
  endfacet
  facet normal 0.707107 0.707107 0
    outer loop
      vertex -2.82843 19.6534 2
      vertex 0 16.825 -2
      vertex -2.82843 19.6534 -2
    endloop
  endfacet
  facet normal 0 -1 0
    outer loop
      vertex -1 27 18
      vertex -6 27 18
      vertex -6 27 10
    endloop
  endfacet
  facet normal 0 -1 0
    outer loop
      vertex -4 27 10
      vertex -1 27 18
      vertex -6 27 10
    endloop
  endfacet
  facet normal 0 -1 0
    outer loop
      vertex -4 27 10
      vertex -1 27 10
      vertex -1 27 18
    endloop
  endfacet
  facet normal 0 -1 0
    outer loop
      vertex -6 27 2
      vertex -4 27 10
      vertex -6 27 10
    endloop
  endfacet
  facet normal 0 -1 0
    outer loop
      vertex -4 27 2
      vertex -4 27 10
      vertex -6 27 2
    endloop
  endfacet
  facet normal 0 -1 0
    outer loop
      vertex 1 27 18
      vertex 1 27 10
      vertex 4 27 10
    endloop
  endfacet
  facet normal 0 -1 0
    outer loop
      vertex 5 27 10
      vertex 1 27 18
      vertex 4 27 10
    endloop
  endfacet
  facet normal 0 -1 0
    outer loop
      vertex 4 27 2
      vertex 6 27 2
      vertex 4 27 10
    endloop
  endfacet
  facet normal 0 -1 0
    outer loop
      vertex 6 27 2
      vertex 6 27 10
      vertex 4 27 10
    endloop
  endfacet
  facet normal 0 -1 0
    outer loop
      vertex 6 27 10
      vertex 5 27 10
      vertex 4 27 10
    endloop
  endfacet
  facet normal 0 -1 0
    outer loop
      vertex 6 27 10
      vertex 6 27 18
      vertex 1 27 18
    endloop
  endfacet
  facet normal 0 -1 0
    outer loop
      vertex 5 27 10
      vertex 6 27 10
      vertex 1 27 18
    endloop
  endfacet
  facet normal 0 1 0
    outer loop
      vertex 1 -27 10
      vertex 1 -27 18
      vertex 4 -27 10
    endloop
  endfacet
  facet normal 0 1 0
    outer loop
      vertex 4 -27 10
      vertex 1 -27 18
      vertex 6 -27 18
    endloop
  endfacet
  facet normal 0 1 0
    outer loop
      vertex 5 -27 10
      vertex 6 -27 18
      vertex 6 -27 10
    endloop
  endfacet
  facet normal 0 1 0
    outer loop
      vertex 4 -27 10
      vertex 6 -27 18
      vertex 5 -27 10
    endloop
  endfacet
  facet normal 0 1 0
    outer loop
      vertex 5 -27 10
      vertex 6 -27 10
      vertex 4 -27 10
    endloop
  endfacet
  facet normal 0 1 0
    outer loop
      vertex 4 -27 10
      vertex 6 -27 10
      vertex 6 -27 2
    endloop
  endfacet
  facet normal 0 1 0
    outer loop
      vertex 4 -27 10
      vertex 6 -27 2
      vertex 4 -27 2
    endloop
  endfacet
  facet normal 2.22045e-16 0 -1
    outer loop
      vertex 1 -35 10
      vertex 1 -27 10
      vertex 4 -35 10
    endloop
  endfacet
  facet normal 2.22045e-16 0 -1
    outer loop
      vertex 4 -35 10
      vertex 1 -27 10
      vertex 4 -27 10
    endloop
  endfacet
  facet normal -2.22045e-16 0 1
    outer loop
      vertex 1 -27 18
      vertex 1 -35 18
      vertex 6 -35 18
    endloop
  endfacet
  facet normal -2.22045e-16 0 1
    outer loop
      vertex 6 -27 18
      vertex 1 -27 18
      vertex 6 -35 18
    endloop
  endfacet
  facet normal -1 0 0
    outer loop
      vertex 1 -30.9716 11.1716
      vertex 1 -27 10
      vertex 1 -35 10
    endloop
  endfacet
  facet normal -1 0 0
    outer loop
      vertex 1 -28.1431 14
      vertex 1 -27 10
      vertex 1 -30.9716 11.1716
    endloop
  endfacet
  facet normal -1 0 0
    outer loop
      vertex 1 -35 18
      vertex 1 -33.8 14
      vertex 1 -35 10
    endloop
  endfacet
  facet normal -1 0 0
    outer loop
      vertex 1 -33.8 14
      vertex 1 -30.9716 11.1716
      vertex 1 -35 10
    endloop
  endfacet
  facet normal -1 0 0
    outer loop
      vertex 1 -27 18
      vertex 1 -27 10
      vertex 1 -28.1431 14
    endloop
  endfacet
  facet normal -1 0 0
    outer loop
      vertex 1 -27 18
      vertex 1 -28.1431 14
      vertex 1 -30.9716 16.8284
    endloop
  endfacet
  facet normal -1 0 0
    outer loop
      vertex 1 -27 18
      vertex 1 -30.9716 16.8284
      vertex 1 -35 18
    endloop
  endfacet
  facet normal -1 0 0
    outer loop
      vertex 1 -33.8 14
      vertex 1 -35 18
      vertex 1 -30.9716 16.8284
    endloop
  endfacet
  facet normal 1 0 2.22045e-16
    outer loop
      vertex 6 -33.8 14
      vertex 6 -35 18
      vertex 6 -35 10
    endloop
  endfacet
  facet normal 1 0 2.22045e-16
    outer loop
      vertex 6 -27 18
      vertex 6 -35 18
      vertex 6 -30.9716 16.8284
    endloop
  endfacet
  facet normal 1 0 2.22045e-16
    outer loop
      vertex 6 -27 10
      vertex 6 -27 18
      vertex 6 -28.1431 14
    endloop
  endfacet
  facet normal 1 0 2.22045e-16
    outer loop
      vertex 6 -27 10
      vertex 6 -30.9716 11.1716
      vertex 6 -35 10
    endloop
  endfacet
  facet normal 1 0 2.22045e-16
    outer loop
      vertex 6 -27 10
      vertex 6 -28.1431 14
      vertex 6 -30.9716 11.1716
    endloop
  endfacet
  facet normal 1 0 2.22045e-16
    outer loop
      vertex 6 -30.9716 16.8284
      vertex 6 -35 18
      vertex 6 -33.8 14
    endloop
  endfacet
  facet normal 1 0 2.22045e-16
    outer loop
      vertex 6 -30.9716 16.8284
      vertex 6 -28.1431 14
      vertex 6 -27 18
    endloop
  endfacet
  facet normal 1 0 2.22045e-16
    outer loop
      vertex 6 -30.9716 11.1716
      vertex 6 -33.8 14
      vertex 6 -35 10
    endloop
  endfacet
  facet normal 2.22045e-16 0 -1
    outer loop
      vertex 5 -35 10
      vertex 5 -27 10
      vertex 6 -35 10
    endloop
  endfacet
  facet normal 2.22045e-16 0 -1
    outer loop
      vertex 6 -35 10
      vertex 5 -27 10
      vertex 6 -27 10
    endloop
  endfacet
  facet normal 0 0 1
    outer loop
      vertex 5 -27 10
      vertex 5 -35 10
      vertex 6 -35 10
    endloop
  endfacet
  facet normal 0 0 1
    outer loop
      vertex 6 -27 10
      vertex 5 -27 10
      vertex 6 -35 10
    endloop
  endfacet
  facet normal 0 0 1
    outer loop
      vertex 5 35 10
      vertex 5 27 10
      vertex 6 27 10
    endloop
  endfacet
  facet normal 0 0 1
    outer loop
      vertex 6 35 10
      vertex 5 35 10
      vertex 6 27 10
    endloop
  endfacet
  facet normal 2.22045e-16 0 -1
    outer loop
      vertex 1 27 10
      vertex 1 35 10
      vertex 4 27 10
    endloop
  endfacet
  facet normal 2.22045e-16 0 -1
    outer loop
      vertex 4 27 10
      vertex 1 35 10
      vertex 4 35 10
    endloop
  endfacet
  facet normal 2.22045e-16 0 -1
    outer loop
      vertex 5 27 10
      vertex 5 35 10
      vertex 6 27 10
    endloop
  endfacet
  facet normal 2.22045e-16 0 -1
    outer loop
      vertex 6 27 10
      vertex 5 35 10
      vertex 6 35 10
    endloop
  endfacet
  facet normal 1 0 2.22045e-16
    outer loop
      vertex 6 28.2 14
      vertex 6 27 18
      vertex 6 27 10
    endloop
  endfacet
  facet normal 1 0 2.22045e-16
    outer loop
      vertex 6 35 18
      vertex 6 27 18
      vertex 6 31.0284 16.8284
    endloop
  endfacet
  facet normal 1 0 2.22045e-16
    outer loop
      vertex 6 35 10
      vertex 6 35 18
      vertex 6 33.8569 14
    endloop
  endfacet
  facet normal 1 0 2.22045e-16
    outer loop
      vertex 6 35 10
      vertex 6 31.0284 11.1716
      vertex 6 27 10
    endloop
  endfacet
  facet normal 1 0 2.22045e-16
    outer loop
      vertex 6 35 10
      vertex 6 33.8569 14
      vertex 6 31.0284 11.1716
    endloop
  endfacet
  facet normal 1 0 2.22045e-16
    outer loop
      vertex 6 31.0284 16.8284
      vertex 6 27 18
      vertex 6 28.2 14
    endloop
  endfacet
  facet normal 1 0 2.22045e-16
    outer loop
      vertex 6 31.0284 16.8284
      vertex 6 33.8569 14
      vertex 6 35 18
    endloop
  endfacet
  facet normal 1 0 2.22045e-16
    outer loop
      vertex 6 31.0284 11.1716
      vertex 6 28.2 14
      vertex 6 27 10
    endloop
  endfacet
  facet normal -2.22045e-16 0 1
    outer loop
      vertex 1 35 18
      vertex 1 27 18
      vertex 6 27 18
    endloop
  endfacet
  facet normal -2.22045e-16 0 1
    outer loop
      vertex 6 35 18
      vertex 1 35 18
      vertex 6 27 18
    endloop
  endfacet
  facet normal -1 0 0
    outer loop
      vertex 1 31.0284 11.1716
      vertex 1 35 10
      vertex 1 27 10
    endloop
  endfacet
  facet normal -1 0 0
    outer loop
      vertex 1 33.8569 14
      vertex 1 35 10
      vertex 1 31.0284 11.1716
    endloop
  endfacet
  facet normal -1 0 0
    outer loop
      vertex 1 27 18
      vertex 1 28.2 14
      vertex 1 27 10
    endloop
  endfacet
  facet normal -1 0 0
    outer loop
      vertex 1 28.2 14
      vertex 1 31.0284 11.1716
      vertex 1 27 10
    endloop
  endfacet
  facet normal -1 0 0
    outer loop
      vertex 1 35 18
      vertex 1 35 10
      vertex 1 33.8569 14
    endloop
  endfacet
  facet normal -1 0 0
    outer loop
      vertex 1 35 18
      vertex 1 33.8569 14
      vertex 1 31.0284 16.8284
    endloop
  endfacet
  facet normal -1 0 0
    outer loop
      vertex 1 35 18
      vertex 1 31.0284 16.8284
      vertex 1 27 18
    endloop
  endfacet
  facet normal -1 0 0
    outer loop
      vertex 1 28.2 14
      vertex 1 27 18
      vertex 1 31.0284 16.8284
    endloop
  endfacet
  facet normal 2.22045e-16 0 -1
    outer loop
      vertex -4 27 10
      vertex -4 35 10
      vertex -1 27 10
    endloop
  endfacet
  facet normal 2.22045e-16 0 -1
    outer loop
      vertex -1 27 10
      vertex -4 35 10
      vertex -1 35 10
    endloop
  endfacet
  facet normal -1 0 -2.22045e-16
    outer loop
      vertex -6 31.0284 11.1716
      vertex -6 27 10
      vertex -6 28.2 14
    endloop
  endfacet
  facet normal -1 0 -2.22045e-16
    outer loop
      vertex -6 33.8569 14
      vertex -6 35 18
      vertex -6 35 10
    endloop
  endfacet
  facet normal -1 0 -2.22045e-16
    outer loop
      vertex -6 31.0284 11.1716
      vertex -6 33.8569 14
      vertex -6 35 10
    endloop
  endfacet
  facet normal -1 0 -2.22045e-16
    outer loop
      vertex -6 27 18
      vertex -6 35 18
      vertex -6 31.0284 16.8284
    endloop
  endfacet
  facet normal -1 0 -2.22045e-16
    outer loop
      vertex -6 27 18
      vertex -6 31.0284 16.8284
      vertex -6 28.2 14
    endloop
  endfacet
  facet normal -1 0 -2.22045e-16
    outer loop
      vertex -6 27 18
      vertex -6 28.2 14
      vertex -6 27 10
    endloop
  endfacet
  facet normal -1 0 -2.22045e-16
    outer loop
      vertex -6 27 10
      vertex -6 31.0284 11.1716
      vertex -6 35 10
    endloop
  endfacet
  facet normal -1 0 -2.22045e-16
    outer loop
      vertex -6 31.0284 16.8284
      vertex -6 35 18
      vertex -6 33.8569 14
    endloop
  endfacet
  facet normal 1 0 0
    outer loop
      vertex -1 31.0284 16.8284
      vertex -1 35 18
      vertex -1 27 18
    endloop
  endfacet
  facet normal 1 0 0
    outer loop
      vertex -1 33.8569 14
      vertex -1 31.0284 11.1716
      vertex -1 35 10
    endloop
  endfacet
  facet normal 1 0 0
    outer loop
      vertex -1 33.8569 14
      vertex -1 35 18
      vertex -1 31.0284 16.8284
    endloop
  endfacet
  facet normal 1 0 0
    outer loop
      vertex -1 35 10
      vertex -1 35 18
      vertex -1 33.8569 14
    endloop
  endfacet
  facet normal 1 0 0
    outer loop
      vertex -1 27 10
      vertex -1 35 10
      vertex -1 31.0284 11.1716
    endloop
  endfacet
  facet normal 1 0 0
    outer loop
      vertex -1 27 10
      vertex -1 28.2 14
      vertex -1 27 18
    endloop
  endfacet
  facet normal 1 0 0
    outer loop
      vertex -1 27 10
      vertex -1 31.0284 11.1716
      vertex -1 28.2 14
    endloop
  endfacet
  facet normal 1 0 0
    outer loop
      vertex -1 28.2 14
      vertex -1 31.0284 16.8284
      vertex -1 27 18
    endloop
  endfacet
  facet normal -2.22045e-16 0 1
    outer loop
      vertex -6 35 18
      vertex -6 27 18
      vertex -1 27 18
    endloop
  endfacet
  facet normal -2.22045e-16 0 1
    outer loop
      vertex -1 35 18
      vertex -6 35 18
      vertex -1 27 18
    endloop
  endfacet
  facet normal -1.57009e-16 0.707107 0.707107
    outer loop
      vertex 6 -33.8 14
      vertex 6 -30.9716 11.1716
      vertex 1 -30.9716 11.1716
    endloop
  endfacet
  facet normal -1.57009e-16 0.707107 0.707107
    outer loop
      vertex 1 -33.8 14
      vertex 6 -33.8 14
      vertex 1 -30.9716 11.1716
    endloop
  endfacet
  facet normal 1.57009e-16 0.707107 -0.707107
    outer loop
      vertex 6 -30.9716 16.8284
      vertex 6 -33.8 14
      vertex 1 -30.9716 16.8284
    endloop
  endfacet
  facet normal 1.57009e-16 0.707107 -0.707107
    outer loop
      vertex 1 -30.9716 16.8284
      vertex 6 -33.8 14
      vertex 1 -33.8 14
    endloop
  endfacet
  facet normal 1.57009e-16 -0.707107 -0.707107
    outer loop
      vertex 6 -28.1431 14
      vertex 6 -30.9716 16.8284
      vertex 1 -28.1431 14
    endloop
  endfacet
  facet normal 1.57009e-16 -0.707107 -0.707107
    outer loop
      vertex 1 -28.1431 14
      vertex 6 -30.9716 16.8284
      vertex 1 -30.9716 16.8284
    endloop
  endfacet
  facet normal -1.57009e-16 -0.707107 0.707107
    outer loop
      vertex 6 -30.9716 11.1716
      vertex 6 -28.1431 14
      vertex 1 -28.1431 14
    endloop
  endfacet
  facet normal -1.57009e-16 -0.707107 0.707107
    outer loop
      vertex 1 -30.9716 11.1716
      vertex 6 -30.9716 11.1716
      vertex 1 -28.1431 14
    endloop
  endfacet
  facet normal 1.57009e-16 0.707107 -0.707107
    outer loop
      vertex 6 31.0284 16.8284
      vertex 6 28.2 14
      vertex 1 31.0284 16.8284
    endloop
  endfacet
  facet normal 1.57009e-16 0.707107 -0.707107
    outer loop
      vertex 1 31.0284 16.8284
      vertex 6 28.2 14
      vertex 1 28.2 14
    endloop
  endfacet
  facet normal 1.57009e-16 -0.707107 -0.707107
    outer loop
      vertex 6 33.8569 14
      vertex 6 31.0284 16.8284
      vertex 1 33.8569 14
    endloop
  endfacet
  facet normal 1.57009e-16 -0.707107 -0.707107
    outer loop
      vertex 1 33.8569 14
      vertex 6 31.0284 16.8284
      vertex 1 31.0284 16.8284
    endloop
  endfacet
  facet normal -1.57009e-16 0.707107 0.707107
    outer loop
      vertex 6 28.2 14
      vertex 6 31.0284 11.1716
      vertex 1 31.0284 11.1716
    endloop
  endfacet
  facet normal -1.57009e-16 0.707107 0.707107
    outer loop
      vertex 1 28.2 14
      vertex 6 28.2 14
      vertex 1 31.0284 11.1716
    endloop
  endfacet
  facet normal -1.57009e-16 -0.707107 0.707107
    outer loop
      vertex 6 31.0284 11.1716
      vertex 6 33.8569 14
      vertex 1 33.8569 14
    endloop
  endfacet
  facet normal -1.57009e-16 -0.707107 0.707107
    outer loop
      vertex 1 31.0284 11.1716
      vertex 6 31.0284 11.1716
      vertex 1 33.8569 14
    endloop
  endfacet
  facet normal 1.57009e-16 -0.707107 -0.707107
    outer loop
      vertex -1 33.8569 14
      vertex -1 31.0284 16.8284
      vertex -6 33.8569 14
    endloop
  endfacet
  facet normal 1.57009e-16 -0.707107 -0.707107
    outer loop
      vertex -6 33.8569 14
      vertex -1 31.0284 16.8284
      vertex -6 31.0284 16.8284
    endloop
  endfacet
  facet normal -1.57009e-16 -0.707107 0.707107
    outer loop
      vertex -6 31.0284 11.1716
      vertex -1 31.0284 11.1716
      vertex -1 33.8569 14
    endloop
  endfacet
  facet normal -1.57009e-16 -0.707107 0.707107
    outer loop
      vertex -6 33.8569 14
      vertex -6 31.0284 11.1716
      vertex -1 33.8569 14
    endloop
  endfacet
  facet normal -1.57009e-16 0.707107 0.707107
    outer loop
      vertex -1 28.2 14
      vertex -1 31.0284 11.1716
      vertex -6 31.0284 11.1716
    endloop
  endfacet
  facet normal -1.57009e-16 0.707107 0.707107
    outer loop
      vertex -6 28.2 14
      vertex -1 28.2 14
      vertex -6 31.0284 11.1716
    endloop
  endfacet
  facet normal 1.57009e-16 0.707107 -0.707107
    outer loop
      vertex -1 28.2 14
      vertex -6 28.2 14
      vertex -1 31.0284 16.8284
    endloop
  endfacet
  facet normal 1.57009e-16 0.707107 -0.707107
    outer loop
      vertex -1 31.0284 16.8284
      vertex -6 28.2 14
      vertex -6 31.0284 16.8284
    endloop
  endfacet
endsolid OpenSCAD_Model
