  0
SECTION
  2
BLOCKS
  0
ENDSEC
  0
SECTION
  2
ENTITIES
  0
LINE
  8
0
 10
-15
 11
-15
 20
-9
 21
9
  0
LINE
  8
0
 10
-15
 11
1.3
 20
9
 21
9
  0
LINE
  8
0
 10
1.3
 11
15
 20
9
 21
2.15
  0
LINE
  8
0
 10
15
 11
15
 20
2.15
 21
-2.15
  0
LINE
  8
0
 10
15
 11
1.3
 20
-2.15
 21
-9
  0
LINE
  8
0
 10
1.3
 11
-15
 20
-9
 21
-9
  0
LINE
  8
0
 10
9
 11
9.008
 20
0
 21
0.125
  0
LINE
  8
0
 10
9.008
 11
9.031
 20
0.125
 21
0.249
  0
LINE
  8
0
 10
9.031
 11
9.07
 20
0.249
 21
0.368
  0
LINE
  8
0
 10
9.07
 11
9.124
 20
0.368
 21
0.482
  0
LINE
  8
0
 10
9.124
 11
9.191
 20
0.482
 21
0.588
  0
LINE
  8
0
 10
9.191
 11
9.271
 20
0.588
 21
0.685
  0
LINE
  8
0
 10
9.271
 11
9.363
 20
0.685
 21
0.771
  0
LINE
  8
0
 10
9.363
 11
9.464
 20
0.771
 21
0.844
  0
LINE
  8
0
 10
9.464
 11
9.574
 20
0.844
 21
0.905
  0
LINE
  8
0
 10
9.574
 11
9.691
 20
0.905
 21
0.951
  0
LINE
  8
0
 10
9.691
 11
9.813
 20
0.951
 21
0.982
  0
LINE
  8
0
 10
9.813
 11
9.937
 20
0.982
 21
0.998
  0
LINE
  8
0
 10
9.937
 11
10.063
 20
0.998
 21
0.998
  0
LINE
  8
0
 10
10.063
 11
10.187
 20
0.998
 21
0.982
  0
LINE
  8
0
 10
10.187
 11
10.309
 20
0.982
 21
0.951
  0
LINE
  8
0
 10
10.309
 11
10.426
 20
0.951
 21
0.905
  0
LINE
  8
0
 10
10.426
 11
10.536
 20
0.905
 21
0.844
  0
LINE
  8
0
 10
10.536
 11
10.637
 20
0.844
 21
0.771
  0
LINE
  8
0
 10
10.637
 11
10.729
 20
0.771
 21
0.685
  0
LINE
  8
0
 10
10.729
 11
10.809
 20
0.685
 21
0.588
  0
LINE
  8
0
 10
10.809
 11
10.876
 20
0.588
 21
0.482
  0
LINE
  8
0
 10
10.876
 11
10.93
 20
0.482
 21
0.368
  0
LINE
  8
0
 10
10.93
 11
10.969
 20
0.368
 21
0.249
  0
LINE
  8
0
 10
10.969
 11
10.992
 20
0.249
 21
0.125
  0
LINE
  8
0
 10
10.992
 11
11
 20
0.125
 21
0
  0
LINE
  8
0
 10
11
 11
10.992
 20
0
 21
-0.125
  0
LINE
  8
0
 10
10.992
 11
10.969
 20
-0.125
 21
-0.249
  0
LINE
  8
0
 10
10.969
 11
10.93
 20
-0.249
 21
-0.368
  0
LINE
  8
0
 10
10.93
 11
10.876
 20
-0.368
 21
-0.482
  0
LINE
  8
0
 10
10.876
 11
10.809
 20
-0.482
 21
-0.588
  0
LINE
  8
0
 10
10.809
 11
10.729
 20
-0.588
 21
-0.685
  0
LINE
  8
0
 10
10.729
 11
10.637
 20
-0.685
 21
-0.771
  0
LINE
  8
0
 10
10.637
 11
10.536
 20
-0.771
 21
-0.844
  0
LINE
  8
0
 10
10.536
 11
10.426
 20
-0.844
 21
-0.905
  0
LINE
  8
0
 10
10.426
 11
10.309
 20
-0.905
 21
-0.951
  0
LINE
  8
0
 10
10.309
 11
10.187
 20
-0.951
 21
-0.982
  0
LINE
  8
0
 10
10.187
 11
10.063
 20
-0.982
 21
-0.998
  0
LINE
  8
0
 10
10.063
 11
9.937
 20
-0.998
 21
-0.998
  0
LINE
  8
0
 10
9.937
 11
9.813
 20
-0.998
 21
-0.982
  0
LINE
  8
0
 10
9.813
 11
9.691
 20
-0.982
 21
-0.951
  0
LINE
  8
0
 10
9.691
 11
9.574
 20
-0.951
 21
-0.905
  0
LINE
  8
0
 10
9.574
 11
9.464
 20
-0.905
 21
-0.844
  0
LINE
  8
0
 10
9.464
 11
9.363
 20
-0.844
 21
-0.771
  0
LINE
  8
0
 10
9.363
 11
9.271
 20
-0.771
 21
-0.685
  0
LINE
  8
0
 10
9.271
 11
9.191
 20
-0.685
 21
-0.588
  0
LINE
  8
0
 10
9.191
 11
9.124
 20
-0.588
 21
-0.482
  0
LINE
  8
0
 10
9.124
 11
9.07
 20
-0.482
 21
-0.368
  0
LINE
  8
0
 10
9.07
 11
9.031
 20
-0.368
 21
-0.249
  0
LINE
  8
0
 10
9.031
 11
9.008
 20
-0.249
 21
-0.125
  0
LINE
  8
0
 10
9.008
 11
9
 20
-0.125
 21
0
  0
ENDSEC
  0
SECTION
  2
OBJECTS
  0
DICTIONARY
  0
ENDSEC
  0
EOF
